# xmcd
#
# Track frame offsets: 
#        150
#        16762
#        32625
#        44887
#        55450
#        76437
#        92325
#        107087
#        122075
#        139650
#        160075
#        176662
#        194912
#        210300
#        230125
#        246325
#        262425
#        282725
#
# Disc length: 3988 seconds
#
# Revision: 0
# Processed by: cddbd v1.5PL3 Copyright (c) Steve Scherf et al.
# Submitted via: ExactAudioCopy v0.90b4
#
DISCID=130f9212
DTITLE=Johnny Hoy and the Bluefish - Live at Charlies
DYEAR=1994
DGENRE=Blues
TTITLE0=Close To You
TTITLE1=Little Upsetter
TTITLE2=Cut That Out
TTITLE3=Johnny McEldoo
TTITLE4=No More Doggin
TTITLE5=Young and Restless
TTITLE6=Must Be Love
TTITLE7=Hidden Charms
TTITLE8=Come on in this House
TTITLE9=Drivin' Wheel
TTITLE10=Got a Little Problem
TTITLE11=Got You on My Mind
TTITLE12=Ooh Poo Pah Doo
TTITLE13=Howlin' for My Darlin
TTITLE14=Crazy Mixed Up World
TTITLE15=Find Somebody to Love
TTITLE16=If You Love Me
TTITLE17=Tennessee Waltz
EXTD=
EXTT0=
EXTT1=
EXTT2=
EXTT3=
EXTT4=
EXTT5=
EXTT6=
EXTT7=
EXTT8=
EXTT9=
EXTT10=
EXTT11=
EXTT12=
EXTT13=
EXTT14=
EXTT15=
EXTT16=
EXTT17=
PLAYORDER=
